<?xml version="1.0" encoding="UTF-8"?>
<svg xmlns="http://www.w3.org/2000/svg" viewBox="0 0 1000 511" role="img" aria-labelledby="title desc">
<title id="title">Primary prompt topics</title>
<desc id="desc">One deterministic keyword-based primary topic is assigned to each logged prompt.</desc>
<rect width="100%" height="100%" fill="#ffffff"/>
<text x="36" y="42" font-family="Arial, sans-serif" font-size="26" font-weight="700" fill="#172554">Primary prompt topics</text>
<text x="36" y="70" font-family="Arial, sans-serif" font-size="14" fill="#475569">One deterministic keyword-based primary topic is assigned to each logged prompt.</text>
<text x="316" y="128" text-anchor="end" font-family="Arial, sans-serif" font-size="14" fill="#334155">Scientific pipeline and corrections</text>
<rect x="330" y="110" width="600" height="25" rx="4" fill="#e2e8f0"/>
<rect x="330" y="110" width="600.0" height="25" rx="4" fill="#2563eb"/>
<text x="939.0" y="128" font-family="Arial, sans-serif" font-size="14" font-weight="700" fill="#0f172a">57</text>
<text x="316" y="170" text-anchor="end" font-family="Arial, sans-serif" font-size="14" fill="#334155">QA and visualization</text>
<rect x="330" y="152" width="600" height="25" rx="4" fill="#e2e8f0"/>
<rect x="330" y="152" width="378.9" height="25" rx="4" fill="#0891b2"/>
<text x="717.9" y="170" font-family="Arial, sans-serif" font-size="14" font-weight="700" fill="#0f172a">36</text>
<text x="316" y="212" text-anchor="end" font-family="Arial, sans-serif" font-size="14" fill="#334155">Other</text>
<rect x="330" y="194" width="600" height="25" rx="4" fill="#e2e8f0"/>
<rect x="330" y="194" width="315.8" height="25" rx="4" fill="#059669"/>
<text x="654.8" y="212" font-family="Arial, sans-serif" font-size="14" font-weight="700" fill="#0f172a">30</text>
<text x="316" y="254" text-anchor="end" font-family="Arial, sans-serif" font-size="14" fill="#334155">Testing and CI</text>
<rect x="330" y="236" width="600" height="25" rx="4" fill="#e2e8f0"/>
<rect x="330" y="236" width="294.7" height="25" rx="4" fill="#65a30d"/>
<text x="633.7" y="254" font-family="Arial, sans-serif" font-size="14" font-weight="700" fill="#0f172a">28</text>
<text x="316" y="296" text-anchor="end" font-family="Arial, sans-serif" font-size="14" fill="#334155">Data and metadata handling</text>
<rect x="330" y="278" width="600" height="25" rx="4" fill="#e2e8f0"/>
<rect x="330" y="278" width="263.2" height="25" rx="4" fill="#ca8a04"/>
<text x="602.2" y="296" font-family="Arial, sans-serif" font-size="14" font-weight="700" fill="#0f172a">25</text>
<text x="316" y="338" text-anchor="end" font-family="Arial, sans-serif" font-size="14" fill="#334155">Publication, packaging, release, and governance</text>
<rect x="330" y="320" width="600" height="25" rx="4" fill="#e2e8f0"/>
<rect x="330" y="320" width="210.5" height="25" rx="4" fill="#ea580c"/>
<text x="549.5" y="338" font-family="Arial, sans-serif" font-size="14" font-weight="700" fill="#0f172a">20</text>
<text x="316" y="380" text-anchor="end" font-family="Arial, sans-serif" font-size="14" fill="#334155">Documentation and website</text>
<rect x="330" y="362" width="600" height="25" rx="4" fill="#e2e8f0"/>
<rect x="330" y="362" width="178.9" height="25" rx="4" fill="#dc2626"/>
<text x="517.9" y="380" font-family="Arial, sans-serif" font-size="14" font-weight="700" fill="#0f172a">17</text>
<text x="316" y="422" text-anchor="end" font-family="Arial, sans-serif" font-size="14" fill="#334155">Drone and UAS workflow</text>
<rect x="330" y="404" width="600" height="25" rx="4" fill="#e2e8f0"/>
<rect x="330" y="404" width="94.7" height="25" rx="4" fill="#7c3aed"/>
<text x="433.7" y="422" font-family="Arial, sans-serif" font-size="14" font-weight="700" fill="#0f172a">9</text>
</svg>
