<?xml version="1.0" encoding="UTF-8"?>
<svg xmlns="http://www.w3.org/2000/svg" viewBox="0 0 1000 343" role="img" aria-labelledby="title desc">
<title id="title">Logged prompts by month</title>
<desc id="desc">Counts reflect entries in PROMPT_LOG.md; missing historical work is not reconstructed.</desc>
<rect width="100%" height="100%" fill="#ffffff"/>
<text x="36" y="42" font-family="Arial, sans-serif" font-size="26" font-weight="700" fill="#172554">Logged prompts by month</text>
<text x="36" y="70" font-family="Arial, sans-serif" font-size="14" fill="#475569">Counts reflect entries in PROMPT_LOG.md; missing historical work is not reconstructed.</text>
<text x="316" y="128" text-anchor="end" font-family="Arial, sans-serif" font-size="14" fill="#334155">2026-03</text>
<rect x="330" y="110" width="600" height="25" rx="4" fill="#e2e8f0"/>
<rect x="330" y="110" width="114.9" height="25" rx="4" fill="#2563eb"/>
<text x="453.9" y="128" font-family="Arial, sans-serif" font-size="14" font-weight="700" fill="#0f172a">9</text>
<text x="316" y="170" text-anchor="end" font-family="Arial, sans-serif" font-size="14" fill="#334155">2026-04</text>
<rect x="330" y="152" width="600" height="25" rx="4" fill="#e2e8f0"/>
<rect x="330" y="152" width="421.3" height="25" rx="4" fill="#0891b2"/>
<text x="760.3" y="170" font-family="Arial, sans-serif" font-size="14" font-weight="700" fill="#0f172a">33</text>
<text x="316" y="212" text-anchor="end" font-family="Arial, sans-serif" font-size="14" fill="#334155">2026-06</text>
<rect x="330" y="194" width="600" height="25" rx="4" fill="#e2e8f0"/>
<rect x="330" y="194" width="600.0" height="25" rx="4" fill="#059669"/>
<text x="939.0" y="212" font-family="Arial, sans-serif" font-size="14" font-weight="700" fill="#0f172a">47</text>
<text x="316" y="254" text-anchor="end" font-family="Arial, sans-serif" font-size="14" fill="#334155">2026-08</text>
<rect x="330" y="236" width="600" height="25" rx="4" fill="#e2e8f0"/>
<rect x="330" y="236" width="127.7" height="25" rx="4" fill="#65a30d"/>
<text x="466.7" y="254" font-family="Arial, sans-serif" font-size="14" font-weight="700" fill="#0f172a">10</text>
</svg>
